{"title":"Mako Mermaids S04E12 720p WEBRip x264-TheRival","uid":14816980,"size":438754533,"categoryP":"video","categoryS":"hd___tv_shows","magnet":"?xt=urn:btih:8c4cb26d69fe7b04fd39d16b22dce025592e9e23&amp;dn=Mako+Mermaids+S04E12+720p+WEBRip+x264-TheRival&amp;tr=udp%3A%2F%2Ftracker.leechers-paradise.org%3A6969&amp;tr=udp%3A%2F%2Fzer0day.ch%3A1337&amp;tr=udp%3A%2F%2Fopen.demonii.com%3A1337&amp;tr=udp%3A%2F%2Ftracker.coppersurfer.tk%3A6969&amp;tr=udp%3A%2F%2Fexodus.desync.com%3A6969","seeders":2,"leechers":0,"uploader":"TheRival","files":2,"time":1465241804,"description":"Screens: \nhttp://extraimago.com/image/a4Lv \nhttp://extraimago.com/image/a4LA \nhttp://extraimago.com/image/a4LW\r\n\r\nVideo\r\nID : 1\r\nFormat : AVC\r\nFormat/Info : Advanced Video Codec\r\nFormat profile :   \r\nFormat settings, CABAC : Yes\r\nFormat settings, ReFrames : 2 frames\r\nFormat settings, GOP : M=1, N=24\r\nCodec ID : avc1\r\nCodec ID/Info : Advanced Video Coding\r\nDuration : 24mn 24s\r\nBit rate mode : Variable\r\nBit rate : 2 263 Kbps\r\nMaximum bit rate : 3 456 Kbps\r\nWidth : 1 280 pixels\r\nHeight : 720 pixels\r\nDisplay aspect ratio : 16:9\r\nFrame rate mode : Constant\r\nFrame rate : 25.000 fps\r\nColor space : YUV\r\nChroma subsampling : 4:2:0\r\nBit depth : 8 bits\r\nScan type : Progressive\r\nBits/(Pixel*Frame) : 0.098\r\nStream size : 395 MiB (94%)\r\nEncoded date : UTC 2016-06-06 12:06:17\r\nTagged date : UTC 2016-06-06 12:09:47\r\nColor primaries : BT.709\r\nTransfer characteristics : BT.709\r\nMatrix coefficients : BT.709\r\n\r\nAudio\r\nID : 2\r\nFormat : AAC\r\nFormat/Info : Advanced Audio Codec\r\nFormat profile : LC\r\nCodec ID : 40\r\nDuration : 24mn 24s\r\nBit rate mode : Variable\r\nBit rate : 128 Kbps\r\nMaximum bit rate : 132 Kbps\r\nChannel(s) : 2 channels\r\nChannel positions : Front: L R\r\nSampling rate : 48.0 KHz\r\nFrame rate : 46.875 fps (1024 spf)\r\nCompression mode : Lossy\r\nStream size : 22.4 MiB (5%)\r\nTitle : English (aac 2.0)\r\nLanguage : English\r\nDefault : Yes\r\nAlternate group : 1","torrent":{"xt":"urn:btih:8c4cb26d69fe7b04fd39d16b22dce025592e9e23","amp;dn":"Mako+Mermaids+S04E12+720p+WEBRip+x264-TheRival","amp;tr":["udp%3A%2F%2Ftracker.leechers-paradise.org%3A6969","udp%3A%2F%2Fzer0day.ch%3A1337","udp%3A%2F%2Fopen.demonii.com%3A1337","udp%3A%2F%2Ftracker.coppersurfer.tk%3A6969","udp%3A%2F%2Fexodus.desync.com%3A6969"],"infoHash":"8c4cb26d69fe7b04fd39d16b22dce025592e9e23","infoHashBuffer":{"type":"Buffer","data":[140,76,178,109,105,254,123,4,253,57,209,107,34,220,224,37,89,46,158,35]},"announce":[],"urlList":[]}}